<svg version="1.1" xmlns="http://www.w3.org/2000/svg" xmlns:xlink="http://www.w3.org/1999/xlink" x="0px" y="0px" viewBox="0 0 64 64" xml:space="preserve" width="64" height="64"><g class="nc-icon-wrapper" fill="#333333"><path data-color="color-2" fill="none" stroke="#333333" stroke-width="2" stroke-linecap="square" stroke-miterlimit="10" d="M2,58h4 c2.2,0,4-1.8,4-4v-4l-4.8-2.4c-2.9-1.5-2.9-5.7,0-7.2L10,38v-4l7.2-2.9c1.3-0.5,1.7-2.3,0.7-3.3L10,20V6" stroke-linejoin="miter"></path> <path fill="none" stroke="#333333" stroke-width="2" stroke-linecap="square" stroke-miterlimit="10" d="M20,46l8-10V18 c0-3.3,2.7-6,6-6h22c3.3,0,6,2.7,6,6v22c0,3.3-2.7,6-6,6H20z" stroke-linejoin="miter"></path> <line fill="none" stroke="#333333" stroke-width="2" stroke-linecap="square" stroke-miterlimit="10" x1="38" y1="24" x2="52" y2="24" stroke-linejoin="miter"></line> <line fill="none" stroke="#333333" stroke-width="2" stroke-linecap="square" stroke-miterlimit="10" x1="38" y1="34" x2="52" y2="34" stroke-linejoin="miter"></line></g></svg>