<svg version="1.1" xmlns="http://www.w3.org/2000/svg" xmlns:xlink="http://www.w3.org/1999/xlink" x="0px" y="0px" viewBox="0 0 64 64" xml:space="preserve" width="64" height="64"><g class="nc-icon-wrapper" fill="#333333"><path data-cap="butt" data-color="color-2" fill="none" stroke="#333333" stroke-width="2" stroke-miterlimit="10" d="M21.5,37.8 c0-5.74,4.76-10.5,10.5-10.5c4.2,0,7.7,2.38,9.38,5.88" stroke-linejoin="miter" stroke-linecap="butt"></path> <path data-cap="butt" data-color="color-2" fill="none" stroke="#333333" stroke-width="2" stroke-miterlimit="10" d="M42.5,38.08 c0,5.74-4.76,10.5-10.5,10.5c-4.2,0-7.7-2.38-9.38-5.88" stroke-linejoin="miter" stroke-linecap="butt"></path> <polyline data-color="color-2" fill="none" stroke="#333333" stroke-width="2" stroke-linecap="square" stroke-miterlimit="10" points=" 41.8,26.88 41.38,33.18 35.08,32.9 " stroke-linejoin="miter"></polyline> <polyline data-color="color-2" fill="none" stroke="#333333" stroke-width="2" stroke-linecap="square" stroke-miterlimit="10" points=" 22.48,49 22.62,42.7 28.92,42.7 " stroke-linejoin="miter"></polyline> <polyline data-cap="butt" fill="none" stroke="#333333" stroke-width="2" stroke-miterlimit="10" points="10,16 14,62 50,62 54,16 " stroke-linejoin="miter" stroke-linecap="butt"></polyline> <rect x="4" y="10" fill="none" stroke="#333333" stroke-width="2" stroke-linecap="square" stroke-miterlimit="10" width="56" height="6" stroke-linejoin="miter"></rect> <polyline fill="none" stroke="#333333" stroke-width="2" stroke-linecap="square" stroke-miterlimit="10" points="24,10 24,2 40,2 40,10 " stroke-linejoin="miter"></polyline></g></svg>