<svg version="1.1" xmlns="http://www.w3.org/2000/svg" xmlns:xlink="http://www.w3.org/1999/xlink" x="0px" y="0px" viewBox="0 0 64 64" xml:space="preserve" width="64" height="64"><g class="nc-icon-wrapper" fill="#333333"><path data-cap="butt" data-color="color-2" fill="none" stroke="#333333" stroke-width="2" stroke-miterlimit="10" d="M5.519,34.462 C0.105,26.629,0.926,15.823,7.953,8.796c6.22-6.22,15.781-7.355,23.269-3.785c0,0,0.587,0.31,0.98,0.532" stroke-linejoin="miter" stroke-linecap="butt"></path> <path data-cap="butt" data-color="color-2" fill="none" stroke="#333333" stroke-width="2" stroke-miterlimit="10" d="M41.489,23.372l15.689,16.495 c1.379,1.485,1.548,3.982-0.23,5.76c-1.613,1.613-4.147,1.613-5.76,0l-1-1" stroke-linejoin="miter" stroke-linecap="butt"></path> <path data-cap="butt" data-color="color-2" fill="none" stroke="#333333" stroke-width="2" stroke-miterlimit="10" d="M29.675,58.325l1.465,1.465 c1.613,1.613,4.147,1.613,5.76,0l0,0c1.613-1.613,1.613-4.147,0-5.76l-3.739-3.739" stroke-linejoin="miter" stroke-linecap="butt"></path> <path data-cap="butt" data-color="color-2" fill="none" stroke="#333333" stroke-width="2" stroke-miterlimit="10" d="M43.659,49.271 c1.613,1.613,1.613,4.147,0,5.76l0,0c-1.613,1.613-4.147,1.613-5.76,0l-1-1" stroke-linejoin="miter" stroke-linecap="butt"></path> <path data-cap="butt" data-color="color-2" fill="none" stroke="#333333" stroke-width="2" stroke-miterlimit="10" d="M39.985,45.598l4.551,4.551 c1.613,1.613,4.154,1.735,5.767,0.122l0,0c1.613-1.613,1.497-4.032-0.115-5.644l-4.616-4.616" stroke-linejoin="miter" stroke-linecap="butt"></path> <path data-cap="butt" fill="none" stroke="#333333" stroke-width="2" stroke-miterlimit="10" d="M47.498,20.437 c-7.027,7.027-19.813-0.115-19.813-0.115c-7.372,7.372-14.284,2.88-14.284,2.88L27.685,8.918c7.948-7.833,20.734-7.948,28.567,0 s7.575,20.994-0.258,28.827l-0.434,0.422" stroke-linejoin="miter" stroke-linecap="butt"></path> <path fill="none" stroke="#333333" stroke-width="2" stroke-miterlimit="10" d="M3.243,42.757L3.243,42.757 c-1.657-1.657-1.657-4.343,0-6l3.78-3.78c1.657-1.657,4.343-1.657,6,0l0,0c1.657,1.657,1.657,4.343,0,6l-3.78,3.78 C7.586,44.414,4.899,44.414,3.243,42.757z" stroke-linejoin="miter" stroke-linecap="square"></path> <path fill="none" stroke="#333333" stroke-width="2" stroke-miterlimit="10" d="M9.743,48.257L9.743,48.257 c-1.657-1.657-1.657-4.343,0-6l3.78-3.78c1.657-1.657,4.343-1.657,6,0l0,0c1.657,1.657,1.657,4.343,0,6l-3.78,3.78 C14.086,49.914,11.399,49.914,9.743,48.257z" stroke-linejoin="miter" stroke-linecap="square"></path> <path fill="none" stroke="#333333" stroke-width="2" stroke-miterlimit="10" d="M16.243,53.757L16.243,53.757 c-1.657-1.657-1.657-4.343,0-6l3.78-3.78c1.657-1.657,4.343-1.657,6,0l0,0c1.657,1.657,1.657,4.343,0,6l-3.78,3.78 C20.586,55.414,17.899,55.414,16.243,53.757z" stroke-linejoin="miter" stroke-linecap="square"></path> <path fill="none" stroke="#333333" stroke-width="2" stroke-miterlimit="10" d="M22.743,59.257L22.743,59.257 c-1.657-1.657-1.657-4.343,0-6l3.78-3.78c1.657-1.657,4.343-1.657,6,0l0,0c1.657,1.657,1.657,4.343,0,6l-3.78,3.78 C27.086,60.914,24.399,60.914,22.743,59.257z" stroke-linejoin="miter" stroke-linecap="square"></path></g></svg>