<svg version="1.1" xmlns="http://www.w3.org/2000/svg" xmlns:xlink="http://www.w3.org/1999/xlink" x="0px" y="0px" viewBox="0 0 64 64" xml:space="preserve" width="64" height="64"><g class="nc-icon-wrapper" fill="#333333"><circle data-stroke="none" fill="#333333" cx="48" cy="37" r="2" stroke-linejoin="miter" stroke-linecap="square"></circle> <path fill="none" stroke="#333333" stroke-width="2" stroke-linecap="square" stroke-miterlimit="10" d="M7,15c-2.761,0-5-2.239-5-5 v0c0-2.761,2.239-5,5-5h40v4" stroke-linejoin="miter"></path> <path fill="none" stroke="#333333" stroke-width="2" stroke-linecap="square" stroke-miterlimit="10" d="M58,31V15H7 c-2.761,0-5-2.239-5-5v41c0,4.418,3.582,8,8,8h48V43" stroke-linejoin="miter"></path> <path data-color="color-2" fill="none" stroke="#333333" stroke-width="2" stroke-linecap="square" stroke-miterlimit="10" d="M62,43H48 c-3.314,0-6-2.686-6-6v0c0-3.314,2.686-6,6-6h14V43z" stroke-linejoin="miter"></path></g></svg>