<svg version="1.1" xmlns="http://www.w3.org/2000/svg" xmlns:xlink="http://www.w3.org/1999/xlink" x="0px" y="0px" viewBox="0 0 64 64" xml:space="preserve" width="64" height="64"><g class="nc-icon-wrapper" fill="#333333"><line data-color="color-2" fill="none" stroke="#333333" stroke-width="2" stroke-linecap="square" stroke-miterlimit="10" x1="54" y1="28" x2="62" y2="28" stroke-linejoin="miter"></line> <line data-color="color-2" fill="none" stroke="#333333" stroke-width="2" stroke-linecap="square" stroke-miterlimit="10" x1="50.517" y1="15" x2="57.445" y2="11" stroke-linejoin="miter"></line> <line data-color="color-2" fill="none" stroke="#333333" stroke-width="2" stroke-linecap="square" stroke-miterlimit="10" x1="50.517" y1="41" x2="57.445" y2="45" stroke-linejoin="miter"></line> <path data-cap="butt" fill="none" stroke="#333333" stroke-width="2" stroke-miterlimit="10" d="M22.368,43.065l5.25,11.764 c0.987,2.211-0.006,4.802-2.216,5.789l0,0c-2.211,0.987-4.802-0.006-5.789-2.216l-9.574-21.453" stroke-linejoin="miter" stroke-linecap="butt"></path> <path fill="none" stroke="#333333" stroke-width="2" stroke-linecap="square" stroke-miterlimit="10" d="M42,51L22,37H11 c-4.971,0-9-4.029-9-9v0c0-4.971,4.029-9,9-9h11L42,5V51z" stroke-linejoin="miter"></path> <line fill="none" stroke="#333333" stroke-width="2" stroke-linecap="square" stroke-miterlimit="10" x1="14" y1="19" x2="14" y2="37" stroke-linejoin="miter"></line></g></svg>