<svg version="1.1" xmlns="http://www.w3.org/2000/svg" xmlns:xlink="http://www.w3.org/1999/xlink" x="0px" y="0px" viewBox="0 0 64 64" xml:space="preserve" width="64" height="64"><g class="nc-icon-wrapper" fill="#333333"><polyline data-cap="butt" fill="none" stroke="#333333" stroke-width="2" stroke-miterlimit="10" points="14,26 14,8 32,8 40,32 " stroke-linecap="butt" stroke-linejoin="miter"></polyline> <line fill="none" stroke="#333333" stroke-width="2" stroke-linecap="square" stroke-miterlimit="10" x1="14" y1="8" x2="8" y2="8" stroke-linejoin="miter"></line> <path fill="none" stroke="#333333" stroke-width="2" stroke-linecap="square" stroke-miterlimit="10" d="M46,32v-8 c0-2.209,1.791-4,4-4h2" stroke-linejoin="miter"></path> <path data-cap="butt" fill="none" stroke="#333333" stroke-width="2" stroke-miterlimit="10" d="M27.416,32H50c2.209,0,4,1.791,4,4v4" stroke-linecap="butt" stroke-linejoin="miter"></path> <circle data-color="color-2" fill="none" stroke="#333333" stroke-width="2" stroke-linecap="square" stroke-miterlimit="10" cx="14" cy="44" r="12" stroke-linejoin="miter"></circle> <path fill="none" stroke="#333333" stroke-width="2" stroke-linecap="square" stroke-miterlimit="10" d="M7,27.412 C9.152,26.503,11.517,26,14,26c9.941,0,18,8.059,18,18c0,1.357-0.15,2.709-0.435,4L46,48" stroke-linejoin="miter"></path> <circle data-color="color-2" fill="none" stroke="#333333" stroke-width="2" stroke-linecap="square" stroke-miterlimit="10" cx="54" cy="48" r="8" stroke-linejoin="miter"></circle></g></svg>