<svg width="108" height="100" viewBox="0 0 108 100" version="1.1" xmlns="http://www.w3.org/2000/svg" xmlns:xlink="http://www.w3.org/1999/xlink">
<title>vector question</title>
<desc>Created using Figma</desc>
<g id="Canvas" transform="matrix(2 0 0 2 10972 -3268)">
<g id="vector question">
<g id="Vector">
<use xlink:href="#path0_fill" transform="translate(-5486 1634)"/>
</g>
</g>
</g>
<defs>
<path id="path0_fill" d="M 22.5 0C 20.0329 0 18 2.18523 18 4.8371L 18 16.1237L 4.5 16.1237C 2.03295 16.1237 0 18.3089 0 20.9608L 0 37.0844C 0 39.7363 2.03295 41.9215 4.5 41.9215L 6.75 41.9215L 6.75 48.371C 6.74687 48.6999 6.83739 49.0219 7.0094 49.294C 7.18142 49.566 7.42672 49.775 7.71239 49.8929C 7.99805 50.0108 8.31043 50.0319 8.60761 49.9535C 8.90479 49.8751 9.17256 49.7009 9.375 49.4543L 15.6797 41.9215L 31.5 41.9215C 33.9671 41.9215 36 39.7363 36 37.0844L 36 25.7979L 38.3203 25.7979L 44.625 33.3306C 44.8274 33.5773 45.0952 33.7515 45.3924 33.8299C 45.6896 33.9083 46.0019 33.8871 46.2876 33.7692C 46.5733 33.6513 46.8186 33.4423 46.9906 33.1703C 47.1626 32.8983 47.2531 32.5762 47.25 32.2473L 47.25 25.7979L 49.5 25.7979C 51.9671 25.7979 54 23.6126 54 20.9608L 54 4.8371C 54 2.18523 51.9671 0 49.5 0L 22.5 0ZM 22.5 3.22473L 49.5 3.22473C 50.3569 3.22473 51 3.91596 51 4.8371L 51 20.9608C 51 21.8819 50.3569 22.5731 49.5 22.5731L 45.75 22.5731C 45.3522 22.5732 44.9707 22.7431 44.6894 23.0454C 44.4081 23.3478 44.25 23.7579 44.25 24.1855L 44.25 28.0401L 40.125 23.1022C 39.9828 22.9337 39.8091 22.7994 39.6152 22.7083C 39.4213 22.6171 39.2116 22.571 39 22.5731L 36 22.5731L 36 20.9608C 36 18.3089 33.9671 16.1237 31.5 16.1237L 21 16.1237L 21 4.8371C 21 3.91596 21.6431 3.22473 22.5 3.22473ZM 4.5 19.3484L 31.5 19.3484C 32.3569 19.3484 33 20.0396 33 20.9608L 33 37.0844C 33 38.0056 32.3569 38.6968 31.5 38.6968L 15 38.6968C 14.7884 38.6947 14.5787 38.7407 14.3848 38.8319C 14.1909 38.9231 14.0172 39.0573 13.875 39.2258L 9.75 44.1637L 9.75 40.3091C 9.74996 39.8815 9.59191 39.4714 9.31062 39.1691C 9.02932 38.8667 8.64781 38.6968 8.25 38.6968L 4.5 38.6968C 3.64306 38.6968 3 38.0056 3 37.0844L 3 20.9608C 3 20.0396 3.64306 19.3484 4.5 19.3484ZM 18 20.9608C 15.1183 20.9608 12.75 23.5064 12.75 26.604C 12.7472 26.8177 12.7839 27.0298 12.858 27.2281C 12.9322 27.4264 13.0422 27.6068 13.1818 27.759C 13.3213 27.9111 13.4876 28.032 13.671 28.1144C 13.8544 28.1969 14.0512 28.2394 14.25 28.2394C 14.4488 28.2394 14.6456 28.1969 14.829 28.1144C 15.0124 28.032 15.1787 27.9111 15.3182 27.759C 15.4578 27.6068 15.5678 27.4264 15.642 27.2281C 15.7161 27.0298 15.7528 26.8177 15.75 26.604C 15.75 25.2492 16.7396 24.1855 18 24.1855C 18.714 24.1855 19.2912 24.4153 19.6641 24.7649C 20.037 25.1145 20.25 25.5487 20.25 26.2261C 20.25 26.4427 20.2196 26.5333 20.0391 26.7552C 19.8585 26.9771 19.4982 27.2585 19.0781 27.5362C 18.658 27.814 18.1796 28.0666 17.6953 28.4431C 17.2111 28.8198 16.5 29.4728 16.5 30.635C 16.5076 31.0168 16.641 31.3834 16.8765 31.6694C 17.112 31.9554 17.4343 32.1423 17.786 32.1967C 18.1377 32.2512 18.496 32.1697 18.797 31.9667C 19.098 31.7637 19.3222 31.4525 19.4297 31.0884C 19.4354 31.0994 19.4541 31.0807 19.4766 31.0632C 19.6954 30.8931 20.1545 30.6243 20.6719 30.2822C 21.1893 29.9402 21.7665 29.5136 22.2891 28.8714C 22.8117 28.2292 23.25 27.2893 23.25 26.2261C 23.25 24.6774 22.6171 23.2692 21.6328 22.3464C 20.6485 21.4236 19.3571 20.9608 18 20.9608ZM 18 33.8597C 17.1716 33.8597 16.5 34.5816 16.5 35.472C 16.5 36.3625 17.1716 37.0844 18 37.0844C 18.8284 37.0844 19.5 36.3625 19.5 35.472C 19.5 34.5816 18.8284 33.8597 18 33.8597Z"/>
</defs>
</svg>
