<svg width="136" height="78" viewBox="0 0 136 78" version="1.1" xmlns="http://www.w3.org/2000/svg" xmlns:xlink="http://www.w3.org/1999/xlink">
<title>vector money</title>
<desc>Created using Figma</desc>
<g id="Canvas" transform="matrix(2 0 0 2 11270 -2978)">
<g id="vector money">
<g id="Vector">
<use xlink:href="#path0_fill" transform="translate(-5635 1489)"/>
</g>
<g id="Vector">
<use xlink:href="#path1_fill" transform="translate(-5613.31 1505.23)"/>
</g>
</g>
</g>
<defs>
<path id="path0_fill" d="M 64.9823 27.8127L 53.9864 35.1932L 39.9362 35.1932L 39.9362 31.3865L 54.5973 31.3865C 54.9791 31.3865 55.3609 31.2311 55.7427 30.998L 67.1967 22.5299C 68.0367 21.9084 68.2657 20.6653 67.6549 19.8108C 67.044 18.9562 65.8222 18.7231 64.9823 19.3446L 53.9864 27.502L 39.9362 27.502L 39.9362 23.6952L 54.5973 23.6952C 55.0555 23.6952 55.4373 23.5398 55.7427 23.3068L 67.1967 14.0618C 68.0367 13.3625 68.1894 12.1972 67.5022 11.3426C 66.8149 10.488 65.6695 10.3327 64.8296 11.0319L 53.9101 19.8108L 39.9362 19.8108L 39.9362 16.004L 54.5973 16.004C 55.0555 16.004 55.5136 15.8486 55.8954 15.4602L 67.3494 4.66135C 67.9603 4.11753 68.113 3.26295 67.8076 2.56375C 67.5022 1.86454 66.8149 1.32072 66.0513 1.32072L 52.1538 1.32072L 52.1538 1.24303C 51.8484 0.466135 51.1611 -2.96361e-07 50.3975 -2.96361e-07L 29.9331 -2.96361e-07C 29.4749 -2.96361e-07 29.0168 0.155379 28.635 0.543825L 27.795 1.39841L 13.363 1.39841C 12.9048 1.39841 12.4467 1.55378 12.0649 1.94223L 0.610879 12.741C 1.36542e-07 13.2849 -0.15272 14.1394 0.15272 14.8386C 0.458159 15.5378 1.1454 15.9263 1.909 15.9263L 15.6538 15.9263L 15.6538 19.7331L 1.909 19.7331C 0.839959 19.7331 0 20.5876 0 21.6753C 0 22.7629 0.839959 23.6175 1.909 23.6175L 15.6538 23.6175L 15.6538 27.4243L 1.909 27.4243C 0.839959 27.4243 0 28.2789 0 29.3665C 0 30.4542 0.839959 31.3088 1.909 31.3088L 15.6538 31.3088L 15.6538 35.1155L 1.909 35.1155C 0.839959 35.1155 0 35.9701 0 37.0578C 0 38.1454 0.839959 39 1.909 39L 54.5973 39C 54.9791 39 55.3609 38.9223 55.6664 38.6892L 67.1204 30.998C 68.0367 30.3765 68.2657 29.2112 67.6549 28.2789C 67.044 27.502 65.8986 27.2689 64.9823 27.8127ZM 53.8337 12.0418L 42.3797 12.0418L 49.7103 5.12749L 61.1643 5.12749L 53.8337 12.0418ZM 14.1266 5.20518L 23.6716 5.20518L 16.341 12.1195L 6.79603 12.1195L 14.1266 5.20518ZM 19.4718 14.3725L 30.6967 3.80677L 45.5105 3.80677L 36.7291 12.1195C 36.3473 12.508 36.1182 12.9741 36.1182 13.5179L 36.1182 35.1155L 19.4718 35.1155L 19.4718 14.3725Z"/>
<path id="path1_fill" d="M 10.9958 13.217L 4.42887 13.217C 4.73431 12.3624 4.88703 11.5079 4.88703 10.6533C 4.88703 10.1871 4.88703 9.79869 4.81067 9.33256L 7.94143 9.33256C 8.70503 9.33256 9.31591 8.71105 9.31591 7.93415C 9.31591 7.15726 8.70503 6.53575 7.94143 6.53575L 4.58159 6.53575C 4.58159 6.22499 4.50523 5.91423 4.50523 5.60348C 4.42887 3.66125 5.65063 2.80666 6.94875 2.65129C 7.63599 2.5736 8.24687 2.72897 8.70503 3.11742C 9.23955 3.50587 9.54499 4.12738 9.62135 4.98196C 9.62135 5.37041 9.85043 5.68117 10.0795 5.91423C 10.3849 6.1473 10.6904 6.22499 11.0722 6.22499C 11.454 6.22499 11.7594 5.99192 11.9885 5.75886C 12.2176 5.4481 12.2939 5.13734 12.2939 4.7489C 12.1412 3.11742 11.454 1.7967 10.2322 0.942121C 9.31591 0.320607 8.24687 -0.0678394 7.02511 0.00984984C 6.87239 0.00984984 6.71967 0.00984984 6.56695 0.00984984C 4.04707 0.320607 1.5272 2.41822 1.75628 5.83654C 1.75628 6.06961 1.75628 6.38037 1.83264 6.61344L 1.37448 6.61344C 0.61088 6.61344 1.16516e-06 7.23495 1.16516e-06 8.01184C 1.16516e-06 8.78873 0.61088 9.41025 1.37448 9.41025L 2.06172 9.41025C 2.13808 9.87639 2.13808 10.3425 2.13808 10.731C 2.13808 11.7409 1.98536 12.6732 1.1454 13.9162C 0.7636 14.5377 0.91632 15.3923 1.5272 15.8585C 1.75628 16.0138 1.98536 16.0915 2.2908 16.0915L 10.9958 16.0915C 11.7594 16.0915 12.3703 15.47 12.3703 14.7708C 12.2939 13.8385 11.7594 13.217 10.9958 13.217Z"/>
</defs>
</svg>
