<svg width="124" height="142" viewBox="0 0 124 142" version="1.1" xmlns="http://www.w3.org/2000/svg" xmlns:xlink="http://www.w3.org/1999/xlink">
<title>vector apple</title>
<desc>Created using Figma</desc>
<g id="Canvas" transform="matrix(2 0 0 2 11276 -2648)">
<g id="vector apple">
<g id="Vector">
<use xlink:href="#path0_fill" transform="translate(-5593.68 1358.39)"/>
</g>
<g id="Vector">
<use xlink:href="#path1_fill" transform="translate(-5619.81 1370.62)"/>
</g>
<g id="Vector">
<use xlink:href="#path2_fill" transform="translate(-5633.94 1370.62)"/>
</g>
<g id="Vector">
<use xlink:href="#path3_fill" transform="translate(-5597.31 1382.65)"/>
</g>
<g id="Vector">
<use xlink:href="#path4_fill" transform="translate(-5638 1324)"/>
</g>
<g id="Vector">
<use xlink:href="#path5_fill" transform="translate(-5599.66 1335.55)"/>
</g>
</g>
</g>
<defs>
<path id="path0_fill" d="M 1.1324 2.30645L 6.82682 2.30645C 7.4519 2.30645 7.95921 1.79057 7.95921 1.15322C 7.95921 0.515876 7.4519 6.56947e-07 6.82682 6.56947e-07L 1.1324 6.56947e-07C 0.507315 6.56947e-07 2.81071e-06 0.515876 2.81071e-06 1.15322C 2.81071e-06 1.79057 0.507315 2.30645 1.1324 2.30645Z"/>
<path id="path1_fill" d="M 1.13239 2.30645L 22.8653 2.30645C 23.4903 2.30645 23.9977 1.7898 23.9977 1.15322C 23.9977 0.515874 23.4903 -1.97084e-06 22.8653 -1.97084e-06L 1.13239 -1.97084e-06C 0.507312 -1.97084e-06 3.2254e-07 0.515874 3.2254e-07 1.15322C 3.2254e-07 1.7898 0.507312 2.30645 1.13239 2.30645Z"/>
<path id="path2_fill" d="M 5.19013 -1.97084e-06L 1.13239 -1.97084e-06C 0.506557 -1.97084e-06 9.7914e-08 0.515874 9.7914e-08 1.15322C 9.7914e-08 1.7898 0.506557 2.30645 1.13239 2.30645L 5.19013 2.30645C 5.81521 2.30645 6.32252 1.7898 6.32252 1.15322C 6.32252 0.515874 5.81521 -1.97084e-06 5.19013 -1.97084e-06Z"/>
<path id="path3_fill" d="M 10.4535 -7.97722e-07L 1.13239 -7.97722e-07C 0.507314 -7.97722e-07 -7.14196e-07 0.515875 -7.14196e-07 1.15322C -7.14196e-07 1.7898 0.507314 2.30645 1.13239 2.30645L 10.4542 2.30645C 11.0793 2.30645 11.5866 1.7898 11.5866 1.15322C 11.5859 0.515875 11.0793 -7.97722e-07 10.4535 -7.97722e-07Z"/>
<path id="path4_fill" d="M 60.8669 64.6526L 58.362 64.6526C 56.8348 61.0169 56.8876 57.8971 58.5122 54.9271L 60.771 54.9271C 61.3961 54.9271 61.9034 54.4113 61.9034 53.7739C 61.9034 53.1373 61.3961 52.6207 60.771 52.6207L 50.7697 52.6207L 48.2633 52.6207C 46.7399 48.9926 46.7905 45.8782 48.4053 42.9144L 60.8676 42.9144C 61.4927 42.9144 62 42.3977 62 41.7612C 62 41.1238 61.4927 40.6079 60.8676 40.6079L 58.4556 40.6079C 56.8733 36.9676 56.8529 33.8462 58.3937 30.8824L 60.7717 30.8824C 61.3968 30.8824 61.9041 30.3665 61.9041 29.7292C 61.9041 29.0918 61.3968 28.576 60.7717 28.576L 42.0835 28.576C 45.233 25.1355 47.9327 18.0247 47.9327 15.2578C 47.9327 11.263 44.8586 7.98322 40.9669 7.67339C 41.1987 7.39123 41.4169 7.09447 41.6026 6.76695C 42.7539 4.73497 42.7176 2.27937 41.5082 0.510327L 41.2047 0.0651825L 40.674 0.0190536C 38.561 -0.168538 36.4525 1.04235 35.3057 3.06433C 35.0725 3.47565 34.9018 3.90619 34.766 4.34288C 33.7544 3.08125 32.3185 1.90803 30.4576 0.828617C 29.9133 0.514171 29.2218 0.707144 28.913 1.26069C 28.6042 1.81424 28.7937 2.51848 29.3373 2.83369C 32.3215 4.56276 33.931 6.40945 34.2383 8.44759C 33.8744 8.3707 33.5083 8.2623 33.1368 8.11699C 32.2996 7.78871 31.4148 7.62264 30.5089 7.62264C 26.5078 7.62264 23.2525 10.8993 23.2525 14.9264C 23.2525 16.0627 25.1829 24.6673 28.7537 28.5744L 15.7591 28.5744C 12.6367 28.5744 10.0972 31.1607 10.0972 34.3405L 10.0972 37.1467C 10.0972 38.4376 10.5207 39.6254 11.2258 40.5872L 5.66196 40.5872C 2.54033 40.5872 2.07347e-07 43.1742 2.07347e-07 46.3533L 2.07347e-07 49.1595C 2.07347e-07 52.3393 2.54033 54.9256 5.66196 54.9256L 11.2401 54.9256C 10.5267 55.8912 10.0972 57.0867 10.0972 58.3853L 10.0972 61.1914C 10.0972 64.3705 12.6367 66.9576 15.7591 66.9576L 18.4542 66.9576L 18.4542 69.846C 18.4542 70.285 18.6996 70.6879 19.0876 70.8816C 19.4734 71.0753 19.9361 71.0284 20.2781 70.7594L 22.9604 68.652L 25.6427 70.7594C 25.845 70.9177 26.0888 71 26.3342 71C 26.5048 71 26.6754 70.9608 26.8332 70.8824C 27.2212 70.6886 27.4666 70.2865 27.4666 69.8468L 27.4666 66.9583L 60.8669 66.9583C 61.4919 66.9583 61.9993 66.4417 61.9993 65.8051C 61.9993 65.1685 61.4919 64.6526 60.8669 64.6526ZM 37.2663 4.21833C 37.8619 3.16889 38.8781 2.4562 39.9236 2.32858C 40.3426 3.31189 40.2483 4.54431 39.642 5.61373C 39.0464 6.66316 38.0303 7.37585 36.9847 7.50348C 36.5657 6.52016 36.6601 5.28852 37.2663 4.21833ZM 30.5082 9.92986C 31.1355 9.92986 31.747 10.0444 32.3238 10.2704C 33.3044 10.6541 34.2904 10.8501 35.2786 10.8694C 35.2861 10.8701 35.2937 10.8732 35.302 10.874C 35.3359 10.877 35.3714 10.8786 35.4054 10.8786C 35.4129 10.8786 35.4205 10.874 35.4288 10.874C 36.4464 10.874 37.4648 10.6825 38.4779 10.2966C 39.0811 10.0667 39.7168 9.94985 40.3668 9.94985C 43.2906 9.94985 45.6671 12.3309 45.6671 15.2578C 45.6671 19.0057 40.7835 28.1923 38.792 28.1923C 38.49 28.1923 38.1979 28.1546 37.9208 28.0801C 37.1198 27.8656 36.3581 27.7602 35.5926 27.7602C 34.8256 27.7602 34.0654 27.8648 33.2629 28.0801C 32.9858 28.1546 32.6937 28.1923 32.3932 28.1923C 28.9032 28.1923 25.5166 16.7554 25.5166 14.9272C 25.5166 12.1717 27.7557 9.92986 30.5082 9.92986ZM 22.2002 41.123C 21.8537 40.9231 21.4302 40.9231 21.0836 41.123L 18.8574 42.4077L 18.8574 36.986L 24.425 36.986L 24.425 42.407L 22.2002 41.123ZM 12.362 37.1483L 12.362 34.3421C 12.362 32.4346 13.8862 30.8824 15.7591 30.8824L 55.8919 30.8824C 54.653 33.8992 54.69 37.1075 56.0051 40.6079L 50.8595 40.6079C 50.7991 40.5972 50.7372 40.5887 50.6738 40.5887L 26.6905 40.5887L 26.6905 36.6962L 36.8843 36.6962C 37.5094 36.6962 38.0167 36.1803 38.0167 35.543C 38.0167 34.9056 37.5094 34.3897 36.8843 34.3897L 15.2896 34.3897C 14.6645 34.3897 14.1572 34.9056 14.1572 35.543C 14.1572 36.1803 14.6645 36.6962 15.2896 36.6962L 16.5933 36.6962L 16.5933 40.5887L 15.5734 40.5887C 13.788 40.4872 12.362 38.9903 12.362 37.1483ZM 2.26479 49.161L 2.26479 46.3548C 2.26479 44.4482 3.78899 42.8952 5.66196 42.8952L 15.3885 42.8952C 15.5115 42.9044 15.6338 42.9144 15.7591 42.9144L 16.5926 42.9144L 16.5926 44.3859C 16.5926 44.7957 16.8062 45.1755 17.1542 45.3823C 17.3301 45.4868 17.5279 45.5391 17.725 45.5391C 17.9175 45.5391 18.11 45.4899 18.2829 45.3892L 21.6415 43.4525L 24.9987 45.3892C 25.349 45.5922 25.7793 45.5891 26.1266 45.3823C 26.4753 45.1755 26.689 44.7957 26.689 44.3859L 26.689 42.9144L 45.8732 42.9144C 44.577 45.9266 44.5627 49.1295 45.8257 52.6207L 15.7591 52.6207L 5.66196 52.6207C 3.78899 52.6207 2.26479 51.0692 2.26479 49.161ZM 25.2018 67.5004L 23.6519 66.2825C 23.4481 66.1226 23.2042 66.0419 22.9604 66.0419C 22.7166 66.0419 22.4727 66.1219 22.2689 66.2825L 20.719 67.5004L 20.719 60.9585L 25.2018 60.9585L 25.2018 67.5004ZM 27.4666 60.9585L 31.2329 60.9585C 31.858 60.9585 32.3653 60.4418 32.3653 59.8053C 32.3653 59.1679 31.858 58.652 31.2329 58.652L 26.3342 58.652L 19.5866 58.652L 15.2896 58.652C 14.6645 58.652 14.1572 59.1679 14.1572 59.8053C 14.1572 60.4418 14.6645 60.9585 15.2896 60.9585L 18.4542 60.9585L 18.4542 64.6526L 15.7591 64.6526C 13.8862 64.6526 12.362 63.1004 12.362 61.193L 12.362 58.3868C 12.362 56.4801 13.8862 54.9271 15.7591 54.9271L 50.7689 54.9271L 55.9779 54.9271C 54.6742 57.9455 54.6568 61.1545 55.9236 64.6526L 27.4666 64.6526L 27.4666 60.9585Z"/>
<path id="path5_fill" d="M 0.873679 2.27613C 1.9487 2.53368 2.75043 3.41936 2.91576 4.53184C 3.00107 5.10307 3.48346 5.51208 4.03305 5.51208C 4.09043 5.51208 4.1463 5.50823 4.20443 5.49901C 4.82347 5.40367 5.24849 4.8163 5.15563 4.18587C 4.85064 2.13621 3.37325 0.505548 1.39307 0.0311883C 0.780823 -0.115656 0.17386 0.27029 0.0304238 0.889187C -0.113013 1.50962 0.264452 2.13083 0.873679 2.27613Z"/>
</defs>
</svg>
