<svg width="116" height="116" viewBox="0 0 116 116" version="1.1" xmlns="http://www.w3.org/2000/svg" xmlns:xlink="http://www.w3.org/1999/xlink">
<title>Vector Earth</title>
<desc>Created using Figma</desc>
<g id="Canvas" transform="matrix(2 0 0 2 10974 -2956)">
<g id="Vector Earth">
<use xlink:href="#path0_fill" transform="translate(-5487 1478)"/>
</g>
</g>
<defs>
<path id="path0_fill" d="M 29 0C 13.05 0 0 13.05 0 29C 0 44.95 13.05 58 29 58C 44.95 58 58 44.95 58 29C 58 13.05 44.95 0 29 0ZM 29 2.9C 35.96 2.9 42.34 5.70333 47.0767 10.15L 47.0767 10.2467C 47.0767 10.3433 46.98 10.73 46.69 11.02C 46.2067 11.4067 45.4333 11.6967 44.7567 11.9867L 37.41 14.6933C 36.3467 15.08 34.8967 15.66 33.93 16.82C 31.1267 20.3967 34.8 24.7467 36.83 27.0667C 37.0233 27.26 37.2167 27.55 37.41 27.7433C 39.3433 30.16 41.47 32.5767 41.18 35.4767C 40.9867 37.99 39.5367 40.31 36.6367 42.7267C 36.3467 42.92 36.1533 43.21 35.7667 43.4033C 34.22 44.7567 31.32 47.27 29.7733 47.27C 29.3867 47.27 28.9033 47.0767 28.42 46.8833C 27.0667 46.4 25.9067 45.9167 24.94 45.24C 24.36 44.8533 23.2 43.6933 23.5867 42.1467C 23.8767 40.89 24.65 39.8267 25.4233 38.57C 25.9067 37.8933 26.39 37.12 26.7767 36.3467C 28.13 33.93 28.2267 31.4167 27.1633 29.58C 26.0033 27.55 23.9733 27.1633 22.33 26.8733C 21.0733 26.5833 20.3 26.39 19.9133 25.9067C 19.72 25.6167 20.01 25.0367 20.3 24.1667C 20.59 23.3933 20.9767 22.5233 21.0733 21.5567C 21.2667 18.3667 17.98 16.24 14.6933 15.7567C 13.92 15.66 13.05 15.5633 12.2767 15.5633C 10.6333 15.4667 9.08667 15.37 7.83 14.6933C 7.63667 14.5967 7.44333 14.5 7.25 14.3067C 11.9867 7.54 20.01 2.9 29 2.9ZM 29 55.1C 14.5967 55.1 2.9 43.4033 2.9 29C 2.9 24.65 3.96333 20.59 5.8 17.0133C 5.99333 17.2067 6.28333 17.3033 6.57333 17.4967C 8.31333 18.3667 10.2467 18.56 12.18 18.6567C 12.9533 18.6567 13.7267 18.7533 14.4033 18.85C 16.3367 19.14 18.3667 20.3 18.27 21.5567C 18.27 22.04 17.98 22.62 17.7867 23.2C 17.3033 24.36 16.53 26.0033 17.5933 27.6467C 18.6567 29.29 20.3967 29.6767 21.8467 29.9667C 23.2967 30.2567 24.2633 30.45 24.7467 31.32C 25.3267 32.2867 25.1333 33.7367 24.36 35.2833C 23.9733 35.96 23.5867 36.54 23.1033 37.2167C 22.2333 38.57 21.2667 39.9233 20.88 41.6633C 20.3 43.8867 21.17 46.2067 23.2967 47.7533C 24.5533 48.72 26.0033 49.3 27.55 49.7833C 28.2267 49.9767 29 50.2667 29.87 50.2667L 29.9667 50.2667C 32.3833 50.17 35.09 48.0433 37.7967 45.7233C 38.0867 45.4333 38.3767 45.24 38.57 45.0467C 42.05 42.1467 43.8867 39.0533 44.1767 35.7667C 44.4667 31.7067 41.8567 28.5167 39.73 25.9067C 39.5367 25.7133 39.3433 25.4233 39.15 25.23C 37.0233 22.7167 35.09 20.2033 36.3467 18.6567C 36.83 18.0767 37.7967 17.69 38.57 17.4L 45.9167 14.6933C 46.7867 14.4033 47.9467 13.92 48.8167 13.1467C 49.01 12.9533 49.2033 12.76 49.3967 12.47C 50.8467 14.3067 52.1033 16.3367 53.07 18.56C 51.62 19.43 49.6867 20.6867 48.8167 22.7167C 47.85 24.94 48.43 27.26 49.1067 28.9033L 49.3 29.3867C 49.59 30.16 49.88 30.8367 49.7833 31.32C 49.7833 31.5133 49.59 31.8033 49.3967 32.0933C 49.3 32.2867 49.1067 32.5767 49.01 32.77C 48.5267 33.8333 48.43 34.8967 48.2367 35.8633C 48.14 36.6367 48.0433 37.7 48.43 38.6667C 48.9133 39.8267 49.88 40.6 50.75 41.18C 51.04 41.3733 51.4267 41.5667 51.7167 41.76C 47.3667 49.6867 38.7633 55.1 29 55.1ZM 52.3933 38.6667C 51.91 38.3767 51.33 37.99 51.2333 37.6033C 51.1367 37.2167 51.1367 36.6367 51.2333 36.1533C 51.33 35.38 51.4267 34.6067 51.7167 33.93C 51.8133 33.7367 51.91 33.64 52.0067 33.4467C 52.2 33.06 52.49 32.5767 52.6833 31.9967C 52.9733 30.5467 52.49 29.29 52.0067 28.2267L 51.8133 27.84C 51.4267 26.97 50.9433 25.3267 51.5233 23.9733C 51.91 23.0067 52.8767 22.2333 54.1333 21.46C 54.9067 23.8767 55.2933 26.4867 55.2933 29.0967C 55.2933 32.6733 54.6167 36.0567 53.2633 39.15C 52.8767 38.9567 52.5867 38.7633 52.3933 38.6667Z"/>
</defs>
</svg>
