<svg width="124" height="116" viewBox="0 0 124 116" version="1.1" xmlns="http://www.w3.org/2000/svg" xmlns:xlink="http://www.w3.org/1999/xlink">
<title>vector hospital</title>
<desc>Created using Figma</desc>
<g id="Canvas" transform="matrix(2 0 0 2 10978 -2660)">
<g id="vector hospital">
<g id="Vector">
<use xlink:href="#path0_stroke" transform="translate(-5457.97 1337.41)"/>
</g>
<g id="Vector">
<use xlink:href="#path1_stroke" transform="translate(-5463.68 1342.25)"/>
</g>
<g id="Vector">
<use xlink:href="#path2_stroke" transform="translate(-5488 1334.66)"/>
</g>
<g id="Vector">
<use xlink:href="#path3_stroke" transform="translate(-5448.53 1334.66)"/>
</g>
<g id="Vector">
<use xlink:href="#path4_stroke" transform="translate(-5482.24 1350.11)"/>
</g>
<g id="Vector">
<use xlink:href="#path5_stroke" transform="translate(-5432.43 1350.11)"/>
</g>
<g id="Vector">
<use xlink:href="#path6_stroke" transform="translate(-5475.57 1356.54)"/>
</g>
<g id="Vector">
<use xlink:href="#path7_stroke" transform="translate(-5475.57 1370.35)"/>
</g>
<g id="Vector">
<use xlink:href="#path8_stroke" transform="translate(-5445.36 1356.54)"/>
</g>
<g id="Vector">
<use xlink:href="#path9_stroke" transform="translate(-5445.36 1370.35)"/>
</g>
<g id="Vector">
<use xlink:href="#path10_stroke" transform="translate(-5464.4 1363.06)"/>
</g>
<g id="Vector">
<use xlink:href="#path11_stroke" transform="translate(-5460.62 1374.13)"/>
</g>
<g id="Vector">
<use xlink:href="#path12_stroke" transform="translate(-5487.1 1386.91)"/>
</g>
<g id="Vector">
<use xlink:href="#path13_stroke" transform="translate(-5469.78 1331)"/>
</g>
</g>
</g>
<defs>
<path id="path0_stroke" d="M 0.999998 1.57105e-07C 0.999998 -0.552285 0.552283 -1 -1.7395e-06 -1C -0.552287 -1 -1 -0.552285 -1 1.57105e-07L 0.999998 1.57105e-07ZM -1 10.468C -1 11.0202 -0.552287 11.468 -1.7395e-06 11.468C 0.552283 11.468 0.999998 11.0202 0.999998 10.468L -1 10.468ZM -1 1.57105e-07L -1 10.468L 0.999998 10.468L 0.999998 1.57105e-07L -1 1.57105e-07Z"/>
<path id="path1_stroke" d="M 6.59661e-08 -1C -0.552285 -1 -1 -0.552286 -1 -1.28174e-06C -1 0.552283 -0.552285 0.999999 6.59661e-08 0.999999L 6.59661e-08 -1ZM 11.6185 0.999999C 12.1708 0.999999 12.6185 0.552283 12.6185 -1.28174e-06C 12.6185 -0.552286 12.1708 -1 11.6185 -1L 11.6185 0.999999ZM 6.59661e-08 0.999999L 11.6185 0.999999L 11.6185 -1L 6.59661e-08 -1L 6.59661e-08 0.999999Z"/>
<path id="path2_stroke" d="M 20.535 1C 21.0873 1 21.535 0.552285 21.535 3.4563e-07C 21.535 -0.552284 21.0873 -1 20.535 -1L 20.535 1ZM 10.9884 3.4563e-07L 10.9884 -1C 10.6705 -1 10.3715 -0.848823 10.183 -0.592775L 10.9884 3.4563e-07ZM 6.59661e-08 14.9292L -0.805367 14.3364C -1.02893 14.6402 -1.06259 15.0439 -0.892406 15.3805C -0.722222 15.717 -0.377151 15.9292 6.59661e-08 15.9292L 6.59661e-08 14.9292ZM 20.535 15.9292C 21.0873 15.9292 21.535 15.4815 21.535 14.9292C 21.535 14.3769 21.0873 13.9292 20.535 13.9292L 20.535 15.9292ZM 20.535 -1L 10.9884 -1L 10.9884 1L 20.535 1L 20.535 -1ZM 10.183 -0.592775L -0.805367 14.3364L 0.805368 15.522L 11.7937 0.592776L 10.183 -0.592775ZM 6.59661e-08 15.9292L 20.535 15.9292L 20.535 13.9292L 6.59661e-08 13.9292L 6.59661e-08 15.9292Z"/>
<path id="path3_stroke" d="M -5.93695e-07 -1C -0.552285 -1 -1 -0.552284 -1 3.4563e-07C -1 0.552285 -0.552285 1 -5.93695e-07 1L -5.93695e-07 -1ZM 9.54661 3.4563e-07L 10.352 -0.592776C 10.1635 -0.848823 9.86453 -1 9.54661 -1L 9.54661 3.4563e-07ZM 20.535 14.9292L 20.535 15.9292C 20.9121 15.9292 21.2572 15.717 21.4274 15.3805C 21.5976 15.0439 21.5639 14.6402 21.3404 14.3364L 20.535 14.9292ZM -5.93695e-07 13.9292C -0.552285 13.9292 -1 14.3769 -1 14.9292C -1 15.4815 -0.552285 15.9292 -5.93695e-07 15.9292L -5.93695e-07 13.9292ZM -5.93695e-07 1L 9.54661 1L 9.54661 -1L -5.93695e-07 -1L -5.93695e-07 1ZM 8.74124 0.592776L 19.7296 15.522L 21.3404 14.3364L 10.352 -0.592776L 8.74124 0.592776ZM 20.535 13.9292L -5.93695e-07 13.9292L -5.93695e-07 15.9292L 20.535 15.9292L 20.535 13.9292Z"/>
<path id="path4_stroke" d="M 1 3.4563e-07C 1 -0.552284 0.552285 -1 2.44141e-07 -1C -0.552284 -1 -1 -0.552284 -1 3.4563e-07L 1 3.4563e-07ZM -1 32.6898C -1 33.2421 -0.552284 33.6898 2.44141e-07 33.6898C 0.552285 33.6898 1 33.2421 1 32.6898L -1 32.6898ZM -1 3.4563e-07L -1 32.6898L 1 32.6898L 1 3.4563e-07L -1 3.4563e-07Z"/>
<path id="path5_stroke" d="M 1 3.4563e-07C 1 -0.552284 0.552285 -1 -1.2207e-07 -1C -0.552285 -1 -1 -0.552284 -1 3.4563e-07L 1 3.4563e-07ZM -1 32.6898C -1 33.2421 -0.552285 33.6898 -1.2207e-07 33.6898C 0.552285 33.6898 1 33.2421 1 32.6898L -1 32.6898ZM -1 3.4563e-07L -1 32.6898L 1 32.6898L 1 3.4563e-07L -1 3.4563e-07Z"/>
<path id="path6_stroke" d="M 4.79411 6.52047C 4.79411 6.52047 4.79411 6.52039 4.79412 6.52023C 4.79425 6.51603 4.79364 6.52376 4.79417 6.51958C 4.79423 6.51902 4.79433 6.51838 4.79448 6.5177C 4.79478 6.51627 4.79515 6.51536 4.79525 6.51513C 4.79541 6.51476 4.79379 6.51853 4.78768 6.52435C 4.77525 6.5362 4.751 6.55007 4.71332 6.55007L 4.71332 8.55007C 5.81592 8.55007 6.79411 7.68626 6.79411 6.52047L 4.79411 6.52047ZM 4.71332 6.55007L 1.08079 6.55007L 1.08079 8.55007L 4.71332 8.55007L 4.71332 6.55007ZM 1.08079 6.55007C 1.04311 6.55007 1.01886 6.5362 1.00642 6.52435C 1.00032 6.51853 0.998694 6.51476 0.998859 6.51513C 0.99896 6.51536 0.999324 6.51627 0.999633 6.5177C 0.999779 6.51838 0.999878 6.51902 0.999938 6.51958C 1.00047 6.52376 0.999857 6.51603 0.999992 6.52023C 1 6.52039 1 6.52047 1 6.52047L -1 6.52047C -1 7.68626 -0.021815 8.55007 1.08079 8.55007L 1.08079 6.55007ZM 1 6.52047L 1 1.0296L -1 1.0296L -1 6.52047L 1 6.52047ZM 1 1.0296C 1 1.02959 1 1.02967 0.999992 1.02984C 0.999857 1.03404 1.00047 1.02631 0.999938 1.03049C 0.999878 1.03104 0.999779 1.03169 0.999633 1.03237C 0.999324 1.0338 0.99896 1.03471 0.998859 1.03494C 0.998694 1.03531 1.00032 1.03154 1.00642 1.02572C 1.01886 1.01387 1.04311 1 1.08079 1L 1.08079 -1C -0.021815 -1 -1 -0.136191 -1 1.0296L 1 1.0296ZM 1.08079 1L 4.71332 1L 4.71332 -1L 1.08079 -1L 1.08079 1ZM 4.71332 1C 4.751 1 4.77525 1.01387 4.78768 1.02572C 4.79379 1.03154 4.79541 1.03531 4.79525 1.03494C 4.79515 1.03471 4.79478 1.0338 4.79448 1.03237C 4.79433 1.03169 4.79423 1.03104 4.79417 1.03049C 4.79364 1.02631 4.79425 1.03404 4.79412 1.02984C 4.79411 1.02967 4.79411 1.02959 4.79411 1.0296L 6.79411 1.0296C 6.79411 -0.136191 5.81592 -1 4.71332 -1L 4.71332 1ZM 4.79411 1.0296L 4.79411 6.52047L 6.79411 6.52047L 6.79411 1.0296L 4.79411 1.0296Z"/>
<path id="path7_stroke" d="M 4.79411 6.52046C 4.79411 6.52047 4.79411 6.52039 4.79412 6.52023C 4.79425 6.51602 4.79364 6.52376 4.79417 6.51958C 4.79423 6.51902 4.79433 6.51838 4.79448 6.5177C 4.79478 6.51626 4.79515 6.51536 4.79525 6.51513C 4.79541 6.51476 4.79379 6.51853 4.78768 6.52435C 4.77525 6.53619 4.751 6.55007 4.71332 6.55007L 4.71332 8.55007C 5.81592 8.55007 6.79411 7.68626 6.79411 6.52046L 4.79411 6.52046ZM 4.71332 6.55007L 1.08079 6.55007L 1.08079 8.55007L 4.71332 8.55007L 4.71332 6.55007ZM 1.08079 6.55007C 1.04311 6.55007 1.01886 6.53619 1.00642 6.52435C 1.00032 6.51853 0.998694 6.51476 0.998859 6.51513C 0.99896 6.51536 0.999324 6.51626 0.999633 6.5177C 0.999779 6.51838 0.999878 6.51902 0.999938 6.51958C 1.00047 6.52376 0.999857 6.51602 0.999992 6.52023C 1 6.52039 1 6.52047 1 6.52046L -1 6.52046C -1 7.68626 -0.021815 8.55007 1.08079 8.55007L 1.08079 6.55007ZM 1 6.52046L 1 1.0296L -1 1.0296L -1 6.52046L 1 6.52046ZM 1 1.0296C 1 1.02959 1 1.02967 0.999992 1.02983C 0.999857 1.03404 1.00047 1.02631 0.999938 1.03048C 0.999878 1.03104 0.999779 1.03168 0.999633 1.03236C 0.999324 1.0338 0.99896 1.03471 0.998859 1.03493C 0.998694 1.03531 1.00032 1.03153 1.00642 1.02571C 1.01886 1.01387 1.04311 0.999996 1.08079 0.999996L 1.08079 -1C -0.0218151 -1 -1 -0.136194 -1 1.0296L 1 1.0296ZM 1.08079 0.999996L 4.71332 0.999996L 4.71332 -1L 1.08079 -1L 1.08079 0.999996ZM 4.71332 0.999996C 4.751 0.999996 4.77525 1.01387 4.78768 1.02571C 4.79379 1.03153 4.79541 1.03531 4.79525 1.03493C 4.79515 1.03471 4.79478 1.0338 4.79448 1.03236C 4.79433 1.03168 4.79423 1.03104 4.79417 1.03048C 4.79364 1.02631 4.79425 1.03404 4.79412 1.02983C 4.79411 1.02967 4.79411 1.02959 4.79411 1.0296L 6.79411 1.0296C 6.79411 -0.136194 5.81592 -1 4.71332 -1L 4.71332 0.999996ZM 4.79411 1.0296L 4.79411 6.52046L 6.79411 6.52046L 6.79411 1.0296L 4.79411 1.0296Z"/>
<path id="path8_stroke" d="M 4.7941 6.52047C 4.7941 6.52047 4.7941 6.52039 4.79411 6.52023C 4.79425 6.51603 4.79363 6.52376 4.79417 6.51958C 4.79423 6.51902 4.79433 6.51838 4.79447 6.5177C 4.79478 6.51627 4.79514 6.51536 4.79525 6.51513C 4.79541 6.51476 4.79379 6.51853 4.78768 6.52435C 4.77525 6.5362 4.751 6.55007 4.71332 6.55007L 4.71332 8.55007C 5.81592 8.55007 6.7941 7.68626 6.7941 6.52047L 4.7941 6.52047ZM 4.71332 6.55007L 1.08079 6.55007L 1.08079 8.55007L 4.71332 8.55007L 4.71332 6.55007ZM 1.08079 6.55007C 1.04311 6.55007 1.01886 6.5362 1.00642 6.52435C 1.00032 6.51853 0.998694 6.51476 0.998859 6.51513C 0.998961 6.51536 0.999325 6.51627 0.999633 6.5177C 0.999779 6.51838 0.999879 6.51902 0.999938 6.51958C 1.00047 6.52376 0.999857 6.51603 0.999992 6.52023C 1 6.52039 1 6.52047 1 6.52047L -1 6.52047C -1 7.68626 -0.021815 8.55007 1.08079 8.55007L 1.08079 6.55007ZM 1 6.52047L 1 1.0296L -1 1.0296L -1 6.52047L 1 6.52047ZM 1 1.0296C 1 1.02959 1 1.02967 0.999992 1.02984C 0.999857 1.03404 1.00047 1.02631 0.999938 1.03049C 0.999879 1.03104 0.999779 1.03169 0.999633 1.03237C 0.999325 1.0338 0.998961 1.03471 0.998859 1.03494C 0.998694 1.03531 1.00032 1.03154 1.00642 1.02572C 1.01886 1.01387 1.04311 1 1.08079 1L 1.08079 -1C -0.021815 -1 -1 -0.136191 -1 1.0296L 1 1.0296ZM 1.08079 1L 4.71332 1L 4.71332 -1L 1.08079 -1L 1.08079 1ZM 4.71332 1C 4.751 1 4.77525 1.01387 4.78768 1.02572C 4.79379 1.03154 4.79541 1.03531 4.79525 1.03494C 4.79514 1.03471 4.79478 1.0338 4.79447 1.03237C 4.79433 1.03169 4.79423 1.03104 4.79417 1.03049C 4.79363 1.02631 4.79425 1.03404 4.79411 1.02984C 4.7941 1.02967 4.7941 1.02959 4.7941 1.0296L 6.7941 1.0296C 6.7941 -0.136191 5.81592 -1 4.71332 -1L 4.71332 1ZM 4.7941 1.0296L 4.7941 6.52047L 6.7941 6.52047L 6.7941 1.0296L 4.7941 1.0296Z"/>
<path id="path9_stroke" d="M 4.7941 6.52046C 4.7941 6.52047 4.7941 6.52039 4.79411 6.52023C 4.79425 6.51602 4.79363 6.52376 4.79417 6.51958C 4.79423 6.51902 4.79433 6.51838 4.79447 6.5177C 4.79478 6.51626 4.79514 6.51536 4.79525 6.51513C 4.79541 6.51476 4.79379 6.51853 4.78768 6.52435C 4.77525 6.53619 4.751 6.55007 4.71332 6.55007L 4.71332 8.55007C 5.81592 8.55007 6.7941 7.68626 6.7941 6.52046L 4.7941 6.52046ZM 4.71332 6.55007L 1.08079 6.55007L 1.08079 8.55007L 4.71332 8.55007L 4.71332 6.55007ZM 1.08079 6.55007C 1.04311 6.55007 1.01886 6.53619 1.00642 6.52435C 1.00032 6.51853 0.998694 6.51476 0.998859 6.51513C 0.998961 6.51536 0.999325 6.51626 0.999633 6.5177C 0.999779 6.51838 0.999879 6.51902 0.999938 6.51958C 1.00047 6.52376 0.999857 6.51602 0.999992 6.52023C 1 6.52039 1 6.52047 1 6.52046L -1 6.52046C -1 7.68626 -0.021815 8.55007 1.08079 8.55007L 1.08079 6.55007ZM 1 6.52046L 1 1.0296L -1 1.0296L -1 6.52046L 1 6.52046ZM 1 1.0296C 1 1.02959 1 1.02967 0.999992 1.02983C 0.999857 1.03404 1.00047 1.02631 0.999938 1.03048C 0.999879 1.03104 0.999779 1.03168 0.999633 1.03236C 0.999325 1.0338 0.998961 1.03471 0.998859 1.03493C 0.998694 1.03531 1.00032 1.03153 1.00642 1.02571C 1.01886 1.01387 1.04311 0.999996 1.08079 0.999996L 1.08079 -1C -0.0218151 -1 -1 -0.136194 -1 1.0296L 1 1.0296ZM 1.08079 0.999996L 4.71332 0.999996L 4.71332 -1L 1.08079 -1L 1.08079 0.999996ZM 4.71332 0.999996C 4.751 0.999996 4.77525 1.01387 4.78768 1.02571C 4.79379 1.03153 4.79541 1.03531 4.79525 1.03493C 4.79514 1.03471 4.79478 1.0338 4.79447 1.03236C 4.79433 1.03168 4.79423 1.03104 4.79417 1.03048C 4.79363 1.02631 4.79425 1.03404 4.79411 1.02983C 4.7941 1.02967 4.7941 1.02959 4.7941 1.0296L 6.7941 1.0296C 6.7941 -0.136194 5.81592 -1 4.71332 -1L 4.71332 0.999996ZM 4.7941 1.0296L 4.7941 6.52046L 6.7941 6.52046L 6.7941 1.0296L 4.7941 1.0296Z"/>
<path id="path10_stroke" d="M 13.4112 19.7333C 13.4112 20.2856 13.859 20.7333 14.4112 20.7333C 14.9635 20.7333 15.4112 20.2856 15.4112 19.7333L 13.4112 19.7333ZM -1 19.7344C -1 20.2867 -0.552284 20.7344 2.63864e-07 20.7344C 0.552285 20.7344 1 20.2867 1 19.7344L -1 19.7344ZM 15.4112 19.7333L 15.4112 1.0296L 13.4112 1.0296L 13.4112 19.7333L 15.4112 19.7333ZM 15.4112 1.0296C 15.4112 -0.136191 14.4331 -1 13.3304 -1L 13.3304 1C 13.3681 1 13.3924 1.01387 13.4048 1.02572C 13.4109 1.03154 13.4125 1.03531 13.4124 1.03494C 13.4123 1.03471 13.4119 1.0338 13.4116 1.03237C 13.4115 1.03169 13.4114 1.03105 13.4113 1.03049C 13.4108 1.02631 13.4114 1.03404 13.4112 1.02984C 13.4112 1.02967 13.4112 1.02959 13.4112 1.0296L 15.4112 1.0296ZM 13.3304 -1L 1.08079 -1L 1.08079 1L 13.3304 1L 13.3304 -1ZM 1.08079 -1C -0.021815 -1 -1 -0.136191 -1 1.0296L 1 1.0296C 1 1.02959 1 1.02967 0.999992 1.02984C 0.999857 1.03404 1.00047 1.02631 0.999938 1.03049C 0.999879 1.03105 0.999779 1.03169 0.999633 1.03237C 0.999325 1.0338 0.998961 1.03471 0.998859 1.03494C 0.998694 1.03531 1.00032 1.03154 1.00642 1.02572C 1.01886 1.01387 1.04311 1 1.08079 1L 1.08079 -1ZM -1 1.0296L -1 19.7344L 1 19.7344L 1 1.0296L -1 1.0296Z"/>
<path id="path11_stroke" d="M 1 3.8962e-06C 1 -0.552281 0.552285 -0.999996 2.44141e-07 -0.999996C -0.552284 -0.999996 -1 -0.552281 -1 3.8962e-06L 1 3.8962e-06ZM -1 1.88726C -1 2.43954 -0.552284 2.88726 2.44141e-07 2.88726C 0.552285 2.88726 1 2.43954 1 1.88726L -1 1.88726ZM -1 3.8962e-06L -1 1.88726L 1 1.88726L 1 3.8962e-06L -1 3.8962e-06Z"/>
<path id="path12_stroke" d="M 0.00147544 -1C -0.550809 -1.00082 -0.999184 -0.553763 -0.999999 -0.00147876C -1.00081 0.550805 -0.553759 0.999181 -0.00147492 0.999995L 0.00147544 -1ZM 58.6313 1.08649C 59.1836 1.0873 59.632 0.64025 59.6328 0.0879656C 59.6336 -0.464319 59.1865 -0.912694 58.6343 -0.913508L 58.6313 1.08649ZM -0.00147492 0.999995L 58.6313 1.08649L 58.6343 -0.913508L 0.00147544 -1L -0.00147492 0.999995Z"/>
<path id="path13_stroke" d="M 22.6196 11.2505C 22.6196 16.8665 17.8261 21.5009 11.8098 21.5009L 11.8098 23.5009C 18.8381 23.5009 24.6196 18.0614 24.6196 11.2505L 22.6196 11.2505ZM 11.8098 21.5009C 5.79342 21.5009 1 16.8665 1 11.2505L -1 11.2505C -1 18.0614 4.78141 23.5009 11.8098 23.5009L 11.8098 21.5009ZM 1 11.2505C 1 5.63445 5.79342 1 11.8098 1L 11.8098 -0.999999C 4.78141 -0.999999 -1 4.43955 -1 11.2505L 1 11.2505ZM 11.8098 1C 17.8261 1 22.6196 5.63445 22.6196 11.2505L 24.6196 11.2505C 24.6196 4.43955 18.8381 -0.999999 11.8098 -0.999999L 11.8098 1Z"/>
</defs>
</svg>
