<svg width="116" height="116" viewBox="0 0 116 116" version="1.1" xmlns="http://www.w3.org/2000/svg" xmlns:xlink="http://www.w3.org/1999/xlink">
<title>Vector Money House</title>
<desc>Created using Figma</desc>
<g id="Canvas" transform="matrix(2 0 0 2 11262 -3260)">
<g id="Vector Money House">
<use xlink:href="#path0_fill" transform="translate(-5631 1630)"/>
</g>
</g>
<defs>
<path id="path0_fill" d="M 28.8559 0.00854202C 28.5508 0.0430682 28.2668 0.188014 28.0529 0.418428L 0.380623 30.1045C 0.197249 30.2989 0.0730499 30.5459 0.0237517 30.8143C -0.0255465 31.0826 0.00227446 31.3603 0.103691 31.6122C 0.205108 31.864 0.375559 32.0786 0.593458 32.2288C 0.811358 32.3791 1.06691 32.4582 1.32774 32.4561L 8.57524 32.4561L 8.57524 56.6193C 8.57527 56.9855 8.71411 57.3367 8.96123 57.5956C 9.20834 57.8545 9.54349 58 9.89296 58L 23.6261 58L 34.3944 58L 48.107 58C 48.4565 58 48.7917 57.8545 49.0388 57.5956C 49.2859 57.3367 49.4247 56.9855 49.4248 56.6193L 49.4248 32.4561L 56.6723 32.4561C 56.9331 32.4582 57.1886 32.3791 57.4065 32.2288C 57.6244 32.0786 57.7949 31.864 57.8963 31.6122C 57.9977 31.3603 58.0255 31.0826 57.9762 30.8143C 57.9269 30.5459 57.8027 30.2989 57.6194 30.1045L 29.9471 0.418428C 29.8071 0.26746 29.636 0.152031 29.4468 0.0809864C 29.2577 0.00994134 29.0556 -0.0148168 28.8559 0.00854202ZM 29 3.35253L 53.5633 29.6946L 48.107 29.6946C 47.7576 29.6947 47.4224 29.8402 47.1753 30.0991C 46.9282 30.358 46.7893 30.7092 46.7893 31.0754L 46.7893 55.2385L 35.5886 55.2385L 35.5886 48.3348C 35.5886 47.2679 35.1418 46.3609 34.4768 45.5948C 33.8118 44.8288 32.833 44.1925 31.6355 44.1925L 26.3645 44.1925C 25.167 44.1925 24.1882 44.8288 23.5232 45.5948C 22.8582 46.3609 22.4114 47.2679 22.4114 48.3348L 22.4114 55.2385L 11.2107 55.2385L 11.2107 31.0754C 11.2107 30.7092 11.0718 30.358 10.8247 30.0991C 10.5776 29.8402 10.2424 29.6947 9.89296 29.6946L 4.43675 29.6946L 29 3.35253ZM 29 15.1968C 21.738 15.1968 15.8227 21.3949 15.8227 29.0043C 15.8227 36.6136 21.738 42.8117 29 42.8117C 36.262 42.8117 42.1773 36.6136 42.1773 29.0043C 42.1773 21.3949 36.262 15.1968 29 15.1968ZM 29 17.9583C 34.8377 17.9583 39.5418 22.8874 39.5418 29.0043C 39.5418 35.1211 34.8377 40.0503 29 40.0503C 23.1623 40.0503 18.4582 35.1211 18.4582 29.0043C 18.4582 22.8874 23.1623 17.9583 29 17.9583ZM 29.6177 22.834C 29.0743 22.8684 28.5563 23.0159 28.1147 23.2655C 26.937 23.9312 26.0349 25.1668 26.0351 26.7174C 26.0351 26.7905 26.0525 26.8626 26.0557 26.9332L 24.7174 26.9332C 24.6762 26.9311 24.635 26.9311 24.5939 26.9332C 24.2455 26.9519 23.9184 27.1145 23.6841 27.3853C 23.4499 27.6561 23.3275 28.0132 23.3439 28.3783C 23.3602 28.7434 23.5139 29.0869 23.7713 29.3336C 24.0287 29.5803 24.3689 29.7101 24.7174 29.6946L 26.8999 29.6946C 26.9158 29.7361 26.9495 29.7854 26.9616 29.8241C 27.061 30.1399 27.0658 30.3156 27.0234 30.5145C 26.9811 30.7133 26.8692 31.0095 26.4263 31.4638C 26.2602 31.6259 26.1369 31.8303 26.0684 32.0571C 25.9999 32.2839 25.9884 32.5254 26.0351 32.7582L 25.3763 32.7582C 25.1522 32.7575 24.9302 32.7849 24.7229 32.8387C 24.5157 32.8926 24.3272 32.972 24.1684 33.0722C 24.0096 33.1725 23.8836 33.2916 23.7976 33.4228C 23.7116 33.5541 23.6673 33.6948 23.6673 33.8369C 23.6673 33.979 23.7116 34.1197 23.7976 34.251C 23.8836 34.3822 24.0096 34.5014 24.1684 34.6016C 24.3272 34.7018 24.5157 34.7811 24.7229 34.835C 24.9302 34.8889 25.1522 34.9163 25.3763 34.9156L 33.2826 34.9156C 33.5051 34.9152 33.7253 34.8869 33.9306 34.8324C 34.1359 34.778 34.3223 34.6984 34.4791 34.5982C 34.6359 34.498 34.76 34.3792 34.8444 34.2486C 34.9288 34.118 34.9718 33.9781 34.971 33.8369L 34.971 32.4993C 34.9736 32.3464 34.9248 32.195 34.8278 32.0551C 34.7309 31.9152 34.588 31.79 34.4087 31.6879C 34.2294 31.5858 34.0179 31.5091 33.7882 31.4631C 33.5585 31.417 33.3159 31.4025 33.0767 31.4206C 32.6639 31.4535 32.2847 31.5816 32.0113 31.7806C 31.7378 31.9795 31.5894 32.2354 31.5943 32.4993L 31.5943 32.7582L 28.8353 32.7582C 29.2131 32.2345 29.4771 31.682 29.5971 31.1185C 29.7058 30.6082 29.6876 30.1341 29.6177 29.6946L 31.306 29.6946C 31.4807 29.6973 31.6541 29.6635 31.8162 29.5953C 31.9783 29.5271 32.1258 29.4258 32.2502 29.2973C 32.3746 29.1689 32.4734 29.0158 32.5409 28.8469C 32.6083 28.6781 32.643 28.4969 32.643 28.3139C 32.643 28.1309 32.6083 27.9497 32.5409 27.7808C 32.4734 27.612 32.3746 27.4589 32.2502 27.3304C 32.1258 27.2019 31.9783 27.1006 31.8162 27.0324C 31.6541 26.9642 31.4807 26.9305 31.306 26.9332L 28.7118 26.9332C 28.6911 26.8572 28.6706 26.7692 28.6706 26.7174C 28.6705 26.4381 28.957 25.9372 29.3706 25.7034C 29.7842 25.4696 30.0458 25.4113 30.4001 25.7681C 30.5195 25.9158 30.6671 26.0355 30.8335 26.1195C 30.9999 26.2035 31.1813 26.2499 31.3659 26.2558C 31.5505 26.2616 31.7342 26.2268 31.9051 26.1534C 32.076 26.0801 32.2303 25.9699 32.358 25.83C 32.4856 25.6902 32.5838 25.5238 32.6462 25.3416C 32.7085 25.1594 32.7336 24.9656 32.7198 24.7726C 32.7061 24.5796 32.6537 24.3918 32.5662 24.2214C 32.4788 24.051 32.3581 23.9017 32.212 23.7833C 31.6182 23.1852 30.9014 22.8976 30.1736 22.834C 29.9917 22.8181 29.7988 22.8225 29.6177 22.834L 29.6177 22.834ZM 26.3645 46.9541L 31.6355 46.9541C 31.898 46.9541 32.2331 47.1188 32.5208 47.4502C 32.8085 47.7815 32.9532 48.2684 32.9532 48.3348L 32.9532 55.2385L 25.0468 55.2385L 25.0468 48.3348C 25.0468 48.2685 25.1915 47.7815 25.4792 47.4502C 25.7669 47.1188 26.102 46.9541 26.3645 46.9541Z"/>
</defs>
</svg>
