<?xml version="1.0" encoding="utf-8"?>
<!-- Generator: Adobe Illustrator 19.2.0, SVG Export Plug-In . SVG Version: 6.00 Build 0)  -->
<svg version="1.1" id="Layer_1" xmlns="http://www.w3.org/2000/svg" xmlns:xlink="http://www.w3.org/1999/xlink" x="0px" y="0px" height="40px" width="40px"
	 viewBox="0 0 512 512" style="enable-background:new 0 0 512 512;" xml:space="preserve">
<style type="text/css">
	.st0{fill:#FFD700;}
	.st1{fill:#FFFDA4;}
</style>
<path class="st0" d="M456.2,307.1c-3.2,0-6.3-1.1-8.9-3.1L319.5,202.6c-6.2-4.9-7.2-13.9-2.3-20.1c4.9-6.2,13.9-7.2,20.1-2.3
	l104.5,82.9v-83L256,32.6L70.2,180.1v83l176.9-140.4c6.2-4.9,15.2-3.9,20.1,2.3c4.9,6.2,3.9,15.2-2.3,20.1L64.7,304
	c-4.3,3.4-10.2,4.1-15.1,1.7c-5-2.4-8.1-7.4-8.1-12.9V173.1c0-4.4,2-8.5,5.4-11.2L247.1,3.1c5.2-4.1,12.6-4.1,17.8,0l200.2,158.8
	c3.4,2.7,5.4,6.9,5.4,11.2v119.6c0,5.5-3.1,10.5-8.1,12.9C460.4,306.6,458.3,307.1,456.2,307.1z"/>
<polygon class="st1" points="456.2,378 256,219.3 55.8,378 55.8,497.7 256,338.9 456.2,497.7 "/>
<path class="st0" d="M456.2,512c-3.2,0-6.3-1.1-8.9-3.1L256,357.2L64.7,508.9c-4.3,3.4-10.2,4.1-15.1,1.7c-5-2.4-8.1-7.4-8.1-12.9
	V378c0-4.4,2-8.5,5.4-11.2L247.1,208c5.2-4.1,12.6-4.1,17.8,0l200.2,158.8c3.4,2.7,5.4,6.9,5.4,11.2v119.6c0,5.5-3.1,10.5-8.1,12.9
	C460.4,511.5,458.3,512,456.2,512z M256,324.5c3.1,0,6.3,1,8.9,3.1L441.8,468v-83L256,237.5L70.2,385v83l176.9-140.4
	C249.7,325.6,252.9,324.5,256,324.5z"/>
</svg>
