<svg version="1.1" xmlns="http://www.w3.org/2000/svg" xmlns:xlink="http://www.w3.org/1999/xlink" x="0px" y="0px" viewBox="0 0 32 32" xml:space="preserve" width="32" height="32"><g class="nc-icon-wrapper" fill="#ff41b4"><path data-color="color-2" fill="none" stroke="#ff41b4" stroke-width="2" stroke-linecap="square" stroke-miterlimit="10" d="M1,29h2 c1.1,0,2-0.9,2-2v-2l-2.4-1.2c-1.5-0.7-1.5-2.8,0-3.6L5,19v-2l3.6-1.4c0.7-0.3,0.8-1.1,0.3-1.6L5,10V3" stroke-linejoin="miter"></path> <path fill="none" stroke="#ff41b4" stroke-width="2" stroke-linecap="square" stroke-miterlimit="10" d="M10,23l4-5V9 c0-1.7,1.3-3,3-3h11c1.7,0,3,1.3,3,3v11c0,1.7-1.3,3-3,3H10z" stroke-linejoin="miter"></path> <line fill="none" stroke="#ff41b4" stroke-width="2" stroke-linecap="square" stroke-miterlimit="10" x1="19" y1="12" x2="26" y2="12" stroke-linejoin="miter"></line> <line fill="none" stroke="#ff41b4" stroke-width="2" stroke-linecap="square" stroke-miterlimit="10" x1="19" y1="17" x2="26" y2="17" stroke-linejoin="miter"></line></g></svg>