<svg version="1.1" xmlns="http://www.w3.org/2000/svg" xmlns:xlink="http://www.w3.org/1999/xlink" x="0px" y="0px" viewBox="0 0 32 32" xml:space="preserve" width="32" height="32"><g class="nc-icon-wrapper" fill="#ff41b4"><path data-cap="butt" data-color="color-2" fill="none" stroke="#ff41b4" stroke-width="2" stroke-miterlimit="10" d="M2.642,16.601 C0.076,12.68,0.516,7.37,3.961,3.926c3.12-3.12,7.873-3.724,11.635-1.913l0.471,0.25" stroke-linejoin="miter" stroke-linecap="butt"></path> <path data-cap="butt" data-color="color-2" fill="none" stroke="#ff41b4" stroke-width="2" stroke-miterlimit="10" d="M25.098,21.83 c0.79,0.79,2.07,0.79,2.859,0l0.039-0.039c0.774-0.774,0.791-2.024,0.039-2.819l-7.36-7.777" stroke-linejoin="miter" stroke-linecap="butt"></path> <path data-cap="butt" data-color="color-2" fill="none" stroke="#ff41b4" stroke-width="2" stroke-miterlimit="10" d="M14.679,28.566l1.842,1.842 c0.79,0.79,2.07,0.79,2.859,0l0,0c0.79-0.79,0.79-2.07,0-2.859" stroke-linejoin="miter" stroke-linecap="butt"></path> <path data-color="color-2" fill="none" stroke="#ff41b4" stroke-width="2" stroke-linecap="square" stroke-miterlimit="10" d=" M19.38,27.549c0.79,0.79,2.07,0.79,2.859,0l0,0c0.79-0.79,0.79-2.07,0-2.859" stroke-linejoin="miter"></path> <path data-color="color-2" fill="none" stroke="#ff41b4" stroke-width="2" stroke-linecap="square" stroke-miterlimit="10" d=" M25.098,21.83c0.79,0.79,0.79,2.07,0,2.859l0,0c-0.79,0.79-2.07,0.79-2.859,0" stroke-linejoin="miter"></path> <path fill="none" stroke="#ff41b4" stroke-width="2" stroke-linecap="square" stroke-miterlimit="10" d="M1.621,20.621L1.621,20.621 c-0.828-0.828-0.828-2.172,0-3l2-2c0.828-0.828,2.172-0.828,3,0l0,0c0.828,0.828,0.828,2.172,0,3l-2,2 C3.793,21.45,2.45,21.45,1.621,20.621z" stroke-linejoin="miter"></path> <path data-cap="butt" fill="none" stroke="#ff41b4" stroke-width="2" stroke-linecap="butt" stroke-miterlimit="10" d="M6.624,18.62 c0.828-0.828,2.172-0.828,3,0l0,0c0.828,0.828,0.828,2.172,0,3l-2,2c-0.828,0.828-2.172,0.828-3,0l0,0c-0.828-0.828-0.828-2.172,0-3 " stroke-linejoin="miter"></path> <path data-cap="butt" fill="none" stroke="#ff41b4" stroke-width="2" stroke-linecap="butt" stroke-miterlimit="10" d=" M9.622,21.622c0.828-0.828,2.172-0.828,3,0l0,0c0.828,0.828,0.828,2.172,0,3l-2,2c-0.828,0.828-2.172,0.828-3,0l0,0 c-0.828-0.828-0.828-2.172,0-3" stroke-linejoin="miter"></path> <path data-cap="butt" fill="none" stroke="#ff41b4" stroke-width="2" stroke-linecap="butt" stroke-miterlimit="10" d=" M12.624,24.62c0.828-0.828,2.172-0.828,3,0l0,0c0.828,0.828,0.828,2.172,0,3l-2,2c-0.828,0.828-2.172,0.828-3,0l0,0 c-0.828-0.828-0.828-2.172,0-3" stroke-linejoin="miter"></path> <path fill="none" stroke="#ff41b4" stroke-width="2" stroke-linecap="square" stroke-miterlimit="10" d="M23.732,9.709 c-3.529,3.529-9.914-0.03-9.914-0.03c-3.708,3.708-7.148,1.43-7.148,1.43l7.148-7.148c3.948-3.948,10.348-3.948,14.296,0 c3.225,3.225,3.715,8.181,1.633,12.039" stroke-linejoin="miter"></path></g></svg>