<svg version="1.1" xmlns="http://www.w3.org/2000/svg" xmlns:xlink="http://www.w3.org/1999/xlink" x="0px" y="0px" viewBox="0 0 32 32" xml:space="preserve" width="32" height="32"><g class="nc-icon-wrapper" fill="#ff41b4"><path fill="none" stroke="#ff41b4" stroke-width="2" stroke-linecap="square" stroke-miterlimit="10" d="M28,16V8h-6H9H4 C2.343,8,1,6.657,1,5v21c0,2.209,1.791,4,4,4h23v-8" stroke-linejoin="miter"></path> <path data-color="color-2" fill="none" stroke="#ff41b4" stroke-width="2" stroke-linecap="square" stroke-miterlimit="10" d="M31,22h-7 c-1.657,0-3-1.343-3-3v0c0-1.657,1.343-3,3-3h7V22z" stroke-linejoin="miter"></path> <path fill="none" stroke="#ff41b4" stroke-width="2" stroke-linecap="square" stroke-miterlimit="10" d="M22,4V2H4 C2.343,2,1,3.343,1,5v0c0,1.657,1.343,3,3,3" stroke-linejoin="miter"></path></g></svg>