<svg version="1.1" xmlns="http://www.w3.org/2000/svg" xmlns:xlink="http://www.w3.org/1999/xlink" x="0px" y="0px" viewBox="0 0 32 32" xml:space="preserve" width="32" height="32"><g class="nc-icon-wrapper" fill="#ff41b4"><path fill="none" stroke="#ff41b4" stroke-width="2" stroke-linecap="square" stroke-miterlimit="10" d="M15,20.012 C14.674,20.004,14.341,20,14,20c-5.57,0-9.247,1.165-11.227,2.043C1.69,22.524,1,23.598,1,24.783V30h17" stroke-linejoin="miter"></path> <path fill="none" stroke="#ff41b4" stroke-width="2" stroke-linecap="square" stroke-miterlimit="10" d="M7,8c0-3.866,3.134-7,7-7 s7,3.134,7,7s-3.134,8-7,8S7,11.866,7,8z" stroke-linejoin="miter"></path> <path data-color="color-2" fill="none" stroke="#ff41b4" stroke-width="2" stroke-linecap="square" stroke-miterlimit="10" d=" M30.041,19.992c-1.46-1.511-3.895-1.264-5.041,0.523c-1.147-1.789-3.583-2.032-5.041-0.523c-1.278,1.323-1.278,3.467,0,4.79 L24.999,30l5.042-5.218C31.32,23.459,31.32,21.315,30.041,19.992z" stroke-linejoin="miter"></path></g></svg>