<svg version="1.1" xmlns="http://www.w3.org/2000/svg" xmlns:xlink="http://www.w3.org/1999/xlink" x="0px" y="0px" viewBox="0 0 32 32" xml:space="preserve" width="32" height="32"><g class="nc-icon-wrapper" fill="#ff41b4"><polyline data-cap="butt" fill="none" stroke="#ff41b4" stroke-width="2" stroke-miterlimit="10" points="7,12 7,4 16,4 20,16 " stroke-linejoin="miter" stroke-linecap="butt"></polyline> <line fill="none" stroke="#ff41b4" stroke-width="2" stroke-linecap="square" stroke-miterlimit="10" x1="7" y1="4" x2="4" y2="4" stroke-linejoin="miter"></line> <path fill="none" stroke="#ff41b4" stroke-width="2" stroke-linecap="square" stroke-miterlimit="10" d="M23,16v-4c0-1.1,0.9-2,2-2 h1" stroke-linejoin="miter"></path> <path data-cap="butt" fill="none" stroke="#ff41b4" stroke-width="2" stroke-miterlimit="10" d="M15,16h10c1.1,0,2,0.9,2,2v2" stroke-linejoin="miter" stroke-linecap="butt"></path> <path data-cap="butt" fill="none" stroke="#ff41b4" stroke-width="2" stroke-miterlimit="10" d="M3,12.8C4.2,12.3,5.6,12,7,12 c5.5,0,10,4.5,10,10c0,1-0.2,2.1-0.5,3l6.6,0" stroke-linejoin="miter" stroke-linecap="butt"></path> <circle data-color="color-2" fill="none" stroke="#ff41b4" stroke-width="2" stroke-linecap="square" stroke-miterlimit="10" cx="7" cy="22" r="6" stroke-linejoin="miter"></circle> <circle data-color="color-2" fill="none" stroke="#ff41b4" stroke-width="2" stroke-linecap="square" stroke-miterlimit="10" cx="27" cy="24" r="4" stroke-linejoin="miter"></circle></g></svg>